<svg class="ea-subheader-icon" focusable="false" version="1.1" xmlns="http://www.w3.org/2000/svg" xmlns:xlink="http://www.w3.org/1999/xlink" aria-hidden="true" width="23"  height="23" ><defs><symbol id="icon-alert-transparent-2" viewBox="0 0 23 23">
            <title>Alert Icon</title>
            <path fill="#E3E3E3" d="M11.5,1C5.7,1,1,5.7,1,11.5C1,17.3,5.7,22,11.5,22C17.3,22,22,17.3,22,11.5C22,5.7,17.3,1,11.5,1z M11.5,3.5
                c1.1,0,1.9,0.9,1.9,2l-0.6,6.9c-0.1,0.9-0.2,1.4-0.6,1.6c-0.2,0.1-0.5,0.2-0.8,0.2c-0.3,0-0.5-0.1-0.8-0.2c-0.4-0.2-0.5-0.7-0.6-1.6
                L9.6,5.5C9.6,4.4,10.4,3.5,11.5,3.5z M11.5,19.2c-1.1,0-2-0.9-2-2c0-1.1,0.9-2,2-2c1.1,0,2,0.9,2,2C13.5,18.3,12.6,19.2,11.5,19.2z"></path>
        </symbol></defs>
		    <use xlink:href="#icon-alert-transparent-2"></use>
	    </svg>