<?xml version="1.0" encoding="UTF-8"?>
<!-- Generated by Pixelmator Pro 3.6.12 -->
<svg width="131" height="81" viewBox="0 0 131 81" xmlns="http://www.w3.org/2000/svg">
    <g id="Group">
        <path id="Path" fill="#8547ad" stroke="none" d="M 75.750244 54.87207 L 70.321411 80.587402 L 52.393188 80.587402 L 64.775879 22.19043 L 82.708252 22.19043 L 78.816772 40.360352 L 103.473755 40.360352 C 106.419434 40.360352 107.244385 39.414551 108.073486 35.760498 L 111.731689 18.415771 C 111.731689 16.765869 110.785889 16.294922 108.544312 16.294922 L 13.524536 16.294922 L 16.828491 0.720947 L 119.2771 0.720947 C 127.301636 0.720947 130.484863 3.553955 130.484863 9.453613 L 124.351807 40.951904 C 122.347778 50.388916 117.981323 54.87207 107.83606 54.87207 Z"/>
        <path id="path1" fill="#a3ce5f" stroke="none" d="M 9.332642 37.760498 L 12.636597 22.19043 L 58.700806 22.19043 L 55.396851 37.760498 Z"/>
        <path id="path2" fill="#c3c5c7" stroke="none" d="M 4.476685 59.123535 L 7.78064 43.553467 L 53.844849 43.553467 L 50.540771 59.123535 Z"/>
        <path id="path3" fill="#c3c6c8" stroke="none" d="M 0.106079 80.588135 L 3.410034 65.013916 L 49.474243 65.013916 L 46.170166 80.588135 Z"/>
    </g>
</svg>
