<?xml version="1.0" encoding="UTF-8"?>
<!-- Generated by Pixelmator Pro 3.6.8 -->
<svg width="560" height="560" viewBox="0 0 560 560" xmlns="http://www.w3.org/2000/svg">
    <g id="Group-copy-2">
        <g id="Group">
            <path id="Path" fill="#ffd400" stroke="none" d="M 410.302399 173.257813 C 410.277802 142.1026 385.233673 116.844879 354.184845 116.459351 L 354.184845 116.459351 C 352.125854 116.672638 349.993011 115.983704 348.418091 114.408569 L 348.418091 114.408569 L 348.418091 114.376007 C 345.612579 111.619781 345.612579 107.124207 348.418091 104.326904 L 348.418091 104.326904 C 349.427002 103.301514 350.673889 102.670166 351.994598 102.399292 L 351.994598 102.399292 C 352.011017 102.399292 352.027405 102.399292 352.043793 102.399292 L 352.043793 102.399292 C 352.084869 102.38327 352.125854 102.38327 352.158661 102.38327 L 352.158661 102.38327 C 352.593414 102.301147 353.019989 102.260101 353.471161 102.260101 L 353.471161 102.260101 C 392.657471 102.260101 424.477356 134.022156 424.501953 173.266327 L 424.501953 173.266327 C 424.501953 177.203674 421.327393 180.386475 417.414459 180.386475 L 417.414459 180.386475 C 413.47699 180.369965 410.302399 177.195648 410.302399 173.257813 L 410.302399 173.257813 Z M 512.611694 173.110138 C 512.439392 85.246552 441.244507 14.158691 353.372742 14.158691 L 353.372742 14.158691 L 353.372742 14.199768 C 349.45166 14.199768 346.26886 11.008423 346.26886 7.095642 L 346.26886 7.095642 C 346.26886 3.157776 349.459869 0 353.372742 0 L 353.372742 0 C 449.045715 0 526.638977 77.412415 526.835876 173.085602 L 526.835876 173.085602 C 526.835876 177.014923 523.636658 180.181213 519.731934 180.214264 L 519.731934 180.214264 C 515.786316 180.214264 512.611694 177.039459 512.611694 173.110138 L 512.611694 173.110138 Z"/>
            <path id="path1" fill="#ffd400" stroke="none" d="M 461.473419 173.19223 C 461.325806 113.760681 413.403168 65.665497 354.078186 65.321045 L 354.078186 65.321045 C 351.256348 65.583893 348.42627 64.123413 347.064545 61.43277 L 347.064545 61.43277 C 345.309052 57.888947 346.744629 53.656219 350.255554 51.892822 L 350.255554 51.892822 C 350.66568 51.958435 349.664948 51.564392 353.462982 51.121796 L 353.462982 51.121796 C 420.917206 51.121796 475.541748 105.721802 475.681244 173.15918 L 475.681244 173.15918 C 475.681244 177.080505 472.498444 180.25531 468.58551 180.296356 L 468.58551 180.296356 C 464.648041 180.287842 461.473419 177.113556 461.473419 173.19223 L 461.473419 173.19223 Z"/>
        </g>
        <g id="g1">
            <g id="g2">
                <path id="path2" fill="#000000" stroke="none" d="M 208.292374 124.851227 C 208.850189 124.851227 209.449036 124.875763 210.023254 124.875763 C 210.58107 124.875763 211.18808 124.851227 211.745895 124.851227 L 208.292374 124.851227 Z M 370.312195 189.081787 C 365.521576 165.112274 350.181732 155.522797 327.163757 145.941315 C 304.482147 136.48349 250.128296 125.187683 210.023254 124.875763 C 169.90181 125.195679 115.556152 136.48349 92.858109 145.941315 C 69.864754 155.514282 54.516735 165.112274 49.726116 189.081787 L 32.466755 321.947876 L 32.466755 505.03299 L 62.178463 505.03299 L 62.178463 533.735901 C 62.178463 568.754883 113.415123 568.754883 113.415123 533.735901 L 113.415123 505.03299 L 207.988876 505.03299 L 208.28418 505.03299 L 306.606781 505.03299 L 306.606781 533.735901 C 306.606781 568.754883 357.843414 568.754883 357.843414 533.735901 L 357.843414 505.03299 L 387.555115 505.03299 L 387.555115 321.947876 L 370.312195 189.081787 Z M 136.974503 158.410217 L 208.292374 158.410217 L 283.063812 158.410217 C 297.452057 158.410217 297.452057 179.97644 283.063812 179.97644 L 208.120117 179.97644 L 136.974503 179.97644 C 122.594414 179.967926 122.594414 158.410217 136.974503 158.410217 Z M 87.829605 447.644226 C 74.26165 447.644226 63.253044 436.627289 63.253044 423.067413 C 63.253044 409.499512 74.26165 398.499115 87.829605 398.499115 C 101.39756 398.499115 112.406136 409.499512 112.406136 423.067413 C 112.406136 436.627289 101.39756 447.644226 87.829605 447.644226 Z M 208.292374 335.958862 L 77.944832 335.958862 C 65.172585 335.958862 62.506565 326.779419 63.761639 317.542389 L 77.190155 221.180267 C 79.035843 209.4664 82.997963 201.755463 98.198349 201.755463 L 208.120117 201.755463 L 321.839935 201.755463 C 337.032135 201.755463 340.994202 209.4664 342.839966 221.180267 L 356.284851 317.542389 C 357.531738 326.779419 354.857483 335.958862 342.093445 335.958862 L 208.292374 335.958862 Z M 332.225128 447.644226 C 318.648926 447.644226 307.640381 436.627289 307.640381 423.067413 C 307.640381 409.499512 318.648926 398.499115 332.225128 398.499115 C 345.784882 398.499115 356.793427 409.499512 356.793427 423.067413 C 356.793427 436.627289 345.784882 447.644226 332.225128 447.644226 Z"/>
            </g>
        </g>
    </g>
</svg>
