<?xml version="1.0" encoding="UTF-8"?>
<!-- Generated by Pixelmator Pro 3.6.12 -->
<svg width="678" height="379" viewBox="0 0 678 379" xmlns="http://www.w3.org/2000/svg">
    <g id="Group">
        <path id="Path" fill="#d8272d" stroke="none" d="M 276.896729 54.203308 L 292.588379 54.203308 L 292.588379 105.294983 L 313.863281 105.294983 L 313.863281 116.282471 L 276.896729 116.282471 Z"/>
        <path id="path1" fill="#d8272d" stroke="none" d="M 342.462158 105.992065 C 349.699463 105.992065 349.699463 97.446228 349.699463 85.242065 C 349.699463 73.033752 349.699463 64.492065 342.462158 64.492065 C 335.224609 64.492065 335.224609 73.033752 335.224609 85.242065 C 335.224609 97.446228 335.224609 105.992065 342.462158 105.992065 M 342.462158 52.983765 C 360.945313 52.983765 366.612061 69.371277 366.612061 85.242065 C 366.612061 101.108765 360.945313 117.500427 342.462158 117.500427 C 323.97876 117.500427 318.312012 101.108765 318.312012 85.242065 C 318.312012 69.371277 323.97876 52.983765 342.462158 52.983765"/>
        <path id="path2" fill="#d8272d" stroke="none" d="M 399.482422 105.992065 C 406.719971 105.992065 406.719971 97.446228 406.719971 85.242065 C 406.719971 73.033752 406.719971 64.492065 399.482422 64.492065 C 392.245117 64.492065 392.245117 73.033752 392.245117 85.242065 C 392.245117 97.446228 392.245117 105.992065 399.482422 105.992065 M 399.482422 52.983765 C 417.96582 52.983765 423.632568 69.371277 423.632568 85.242065 C 423.632568 101.108765 417.96582 117.500427 399.482422 117.500427 C 380.999268 117.500427 375.33252 101.108765 375.33252 85.242065 C 375.33252 69.371277 380.999268 52.983765 399.482422 52.983765"/>
        <path id="path3" fill="#d8272d" stroke="none" d="M 449.442383 80.446228 L 452.234131 80.446228 C 456.763428 80.446228 461.996582 78.700439 461.996582 72.862915 C 461.996582 67.02124 456.763428 65.187927 452.234131 65.187927 L 449.442383 65.187927 Z M 433.746582 54.20459 L 457.113281 54.20459 C 468.796631 54.20459 478.213379 59.608765 478.213379 71.812927 C 478.213379 86.112915 467.925781 91.433777 455.455078 91.433777 L 449.442383 91.08374 L 449.442383 116.279602 L 433.746582 116.279602 Z"/>
        <path id="path4" fill="#f2bab4" stroke="none" d="M 176.355713 54.32959 C 193.343262 52.087891 206.13501 64.612915 204.647461 82.479553 C 203.159912 100.337891 188.01416 116.546265 170.647461 118.83374 C 153.664063 121.075439 140.876709 108.550415 142.360107 90.692078 C 143.843262 72.825439 158.989258 56.617065 176.355713 54.32959"/>
        <path id="path5" fill="#fffffe" stroke="none" d="M 197.098389 54.32959 C 214.085938 52.087891 226.877441 64.612915 225.389893 82.479553 C 223.902588 100.337891 208.756592 116.546265 191.389893 118.83374 C 174.402588 121.075439 161.619141 108.550415 163.102539 90.692078 C 164.585938 72.825439 179.731689 56.617065 197.098389 54.32959"/>
        <path id="path6" fill="#e78380" stroke="none" d="M 197.098389 54.32959 C 214.085938 52.087891 226.877441 64.612915 225.389893 82.479553 C 223.902588 100.337891 208.756592 116.546265 191.389893 118.83374 C 174.402588 121.075439 161.619141 108.550415 163.102539 90.692078 C 164.585938 72.825439 179.731689 56.617065 197.098389 54.32959"/>
        <path id="path7" fill="#d8272d" stroke="none" d="M 217.841309 54.32959 C 234.828857 52.087891 247.620361 64.612915 246.132813 82.479553 C 244.645508 100.337891 229.499512 116.546265 212.132813 118.83374 C 195.145508 121.075439 182.362061 108.550415 183.845459 90.692078 C 185.328857 72.825439 200.474609 56.617065 217.841309 54.32959"/>
        <path id="path8" fill="#97a4a7" stroke="none" d="M 675.54126 150.927063 L 604.137207 150.927063 L 534.79126 238.189575 L 559.349609 122.985413 C 565.557861 92.827087 570.441162 66.21875 571.324707 49.360413 L 508.349609 63.997925 C 507.016357 87.506226 503.912109 103.0271 499.92041 122.985413 L 456.507813 326.627075 L 419.612061 326.627075 L 443.60791 213.018738 C 446.712158 198.827087 447.599609 189.072937 446.270508 180.643738 C 443.162109 161.127075 424.091309 147.818726 398.812012 147.818726 C 385.507813 147.818726 369.095459 151.372925 355.79126 157.581238 C 344.703857 162.9021 342.04126 164.677063 326.078857 174.435425 C 327.849609 165.118774 326.962158 155.364563 323.85791 146.052063 L 267.528809 161.127075 C 269.745361 176.206238 268.41626 194.831238 264.424561 214.3479 L 240.374512 327.306274 L 196.241211 327.306274 L 234.54541 146.489563 L 173.337158 155.802063 L 136.97876 326.7146 C 132.178711 327.522888 79.878662 326.643738 75.895508 326.627075 C 71.020508 326.606262 66.583008 324.4104 65.249512 320.418762 C 63.037109 314.210388 63.407959 317.272888 70.532959 281.318726 L 108.22876 104.356262 C 114.799561 72.814575 117.04541 58.1521 117.524658 45.831238 L 117.524658 45.372925 C 117.511963 41.918762 116.91626 17.768738 102.60376 3.189575 C 101.462158 2.0271 99.691162 1.735413 98.178711 2.34375 L 46.29541 23.189575 C 44.649658 23.810425 44.182861 25.922913 45.449463 27.147888 C 49.378662 30.935425 55.316162 39.931274 54.132813 59.118774 L 54.120361 59.118774 C 51.903809 79.522949 48.799561 97.702087 42.591309 127.418762 L 6.66626 296.84375 C -0.429688 329.21875 -0.875488 336.318726 0.899658 347.8479 C 4.003662 366.918762 21.745361 378.893738 47.028809 378.893738 L 288.820313 378.893738 L 322.970459 218.3396 C 339.378662 205.922913 356.678711 197.939575 368.649658 197.939575 C 384.178711 197.939575 386.837158 205.481262 381.516357 231.206238 L 350.024658 378.893738 L 504.79541 378.893738 L 529.687012 262.131226 L 573.974609 378.893738 L 644.049561 378.893738 L 582.845459 246.727112 Z"/>
    </g>
</svg>
