<?xml version="1.0" encoding="UTF-8"?>
<!-- Generated by Pixelmator Pro 3.6.12 -->
<svg width="254" height="256" viewBox="0 0 254 256" xmlns="http://www.w3.org/2000/svg">
    <g id="night-owl">
        <g id="Group">
            <path id="Path" fill="#231f20" stroke="none" d="M 86.35804 90.02829 L 82.68779 88.193161 L 80.852661 84.522919 L 75.34729 72.594589 L 73.512161 64.336533 L 73.512161 54.243347 L 76.264847 40.479904 L 84.522919 26.716446 L 86.35804 24.881332 L 86.35804 0.107147 L 98.286354 15.705704 L 112.967361 12.953018 L 132.236176 12.953018 L 151.505005 15.705704 L 164.350876 1.942261 L 163.433319 24.881332 L 164.350876 24.881332 L 168.021118 30.386703 L 171.691376 38.644775 L 173.526505 40.479904 L 177.196747 55.160904 L 177.196747 59.748718 L 174.444077 73.512161 L 169.856247 84.522919 L 166.186005 90.02829 L 164.350876 90.945847 L 168.021118 111.132233 L 170.773819 140.494232 L 170.773819 159.763062 L 168.021118 187.289948 L 162.515747 212.981689 L 151.505005 244.178833 L 145.999619 249.684204 L 140.494247 253.354462 L 135.906418 255.189575 L 131.318604 256.107147 L 127.648361 254.272018 L 123.978119 254.272018 L 116.637611 251.519333 L 111.132233 246.931519 L 100.121483 229.497833 L 92.780983 211.146576 L 86.35804 184.537262 L 83.605347 157.010376 L 83.605347 129.48349 L 86.35804 90.02829 Z M 117.555168 95.533661 L 119.390305 87.275604 L 124.895676 82.68779 L 127.648361 82.68779 L 131.318604 84.522919 L 134.988876 90.945847 L 135.906418 94.616089 L 132.236176 105.626862 L 126.730797 114.802475 L 119.390305 101.039032 L 117.555168 95.533661 Z M 167.103546 70.759476 L 167.103546 72.594589 L 168.021118 73.512161 L 167.103546 77.182419 L 164.350876 79.935104 L 164.350876 81.770218 L 157.927917 87.275604 L 150.587433 90.02829 L 145.999619 90.02829 L 138.659103 87.275604 L 133.153748 79.017532 L 129.48349 68.00679 L 129.48349 60.666275 L 134.988876 45.067719 L 141.411804 40.479904 L 148.752304 37.727219 L 156.092804 40.479904 L 160.680634 43.23259 L 163.433319 47.820404 L 167.103546 57.913589 L 167.103546 70.759476 L 168.021118 68.00679 L 168.021118 57.913589 L 164.350876 48.737976 L 159.763062 42.315018 L 155.175232 39.562332 L 147.834747 36.809647 L 145.999619 38.644775 L 140.494247 40.479904 L 136.82399 43.23259 L 131.318604 50.57309 L 131.318604 54.243347 L 129.48349 60.666275 L 129.48349 67.089218 L 133.153748 78.099976 L 136.82399 84.522919 L 138.659103 86.358032 L 145.999619 89.110718 L 151.505005 89.110718 L 158.84549 86.358032 L 168.021118 78.099976 L 168.93869 76.264847 L 168.93869 73.512161 L 167.103546 72.594589 L 167.103546 70.759476 Z M 122.142982 70.759476 L 123.060555 75.347275 L 119.390305 79.935104 L 119.390305 81.770218 L 112.967361 87.275604 L 105.626862 90.02829 L 100.121483 90.02829 L 92.780983 87.275604 L 90.945854 85.440475 L 90.02829 81.770218 L 87.275612 77.182419 L 84.522919 68.00679 L 84.522919 60.666275 L 86.35804 54.243347 L 89.110725 48.737976 L 90.02829 45.067719 L 91.863426 42.315018 L 94.616104 41.397461 L 96.451233 39.562332 L 104.70929 36.809647 L 112.049797 39.562332 L 116.637611 42.315018 L 116.637611 45.067719 L 121.225426 54.243347 L 123.060555 60.666275 L 123.060555 67.089218 L 122.142982 70.759476 L 123.060555 68.00679 L 123.060555 60.666275 L 120.307854 51.490662 L 114.802483 42.315018 L 110.214676 39.562332 L 102.874176 36.809647 L 94.616104 39.562332 L 92.780983 41.397461 L 90.02829 42.315018 L 90.02829 45.067719 L 87.275612 50.57309 L 84.522919 60.666275 L 84.522919 67.089218 L 88.193161 78.099976 L 91.863426 84.522919 L 93.69854 86.358032 L 101.039047 89.110718 L 106.544418 89.110718 L 113.884926 86.358032 L 116.637611 84.522919 L 116.637611 83.605347 L 118.47274 82.68779 L 123.978119 76.264847 L 123.978119 73.512161 L 122.142982 72.594589 L 122.142982 70.759476 Z M 88.193161 215.73439 L 80.852661 191.877747 L 78.099976 169.856247 L 79.01754 98.286346 L 70.759476 90.945847 L 61.583851 79.935104 L 58.831158 75.347275 L 52.408218 72.594589 L 50.573093 73.512161 L 47.820408 73.512161 L 43.232594 79.017532 L 31.304276 122.142975 L 22.128649 149.669861 L 4.694957 189.125061 L 1.942268 197.383133 L 0.107143 206.558762 L 1.024706 212.981689 L 2.859831 218.487061 L 4.694957 221.239761 L 10.200334 226.745132 L 16.623272 231.332947 L 34.974529 235.003204 L 47.820408 235.003204 L 69.841911 229.497833 L 76.264847 226.745132 L 83.605347 222.157318 L 86.35804 219.404633 L 88.193161 215.73439 Z M 168.021118 218.487061 L 170.773819 210.229004 L 174.444077 194.630432 L 178.114304 164.350861 L 177.196747 142.329361 L 173.526505 113.884918 L 172.608932 100.12149 L 188.207504 84.522919 L 190.96019 79.017532 L 194.630447 75.347275 L 198.30069 73.512161 L 201.970947 75.347275 L 208.393875 81.770218 L 216.651962 110.214676 L 230.41539 151.505005 L 241.426132 177.196747 L 250.601776 195.548004 L 254.272018 206.558762 L 254.272018 210.229004 L 252.43689 215.73439 L 252.43689 219.404633 L 245.09639 226.745132 L 234.085648 232.250504 L 220.322205 235.003204 L 207.476334 235.003204 L 186.372391 230.41539 L 179.031876 227.662689 L 171.691376 223.07489 L 168.021118 218.487061 Z"/>
            <path id="path1" fill="#ffffff" stroke="none" d="M 103.791725 89.110718 L 98.286354 88.193161 L 93.69854 86.358032 L 91.863426 84.522919 L 87.275612 77.182419 L 84.522919 68.00679 L 84.522919 60.666275 L 87.275612 50.57309 L 90.02829 45.067719 L 96.451233 39.562332 L 99.203911 39.562332 L 103.791725 37.727219 L 108.379547 39.562332 L 111.132233 39.562332 L 116.637611 45.067719 L 120.307854 50.57309 L 122.142982 57.913589 L 122.142982 70.759476 L 120.307854 77.182419 L 116.637611 81.770218 L 115.720047 84.522919 L 106.544418 89.110718 Z"/>
            <path id="path2" fill="#231f20" stroke="none" d="M 113.884926 84.522919 L 112.967361 83.605347 L 108.379547 82.68779 L 104.70929 78.099976 L 104.70929 71.677032 L 106.544418 68.00679 L 108.379547 68.00679 L 108.379547 66.171646 L 118.47274 66.171646 L 119.390305 68.00679 L 120.307854 68.00679 L 122.142982 69.841904 L 123.060555 76.264847 L 122.142982 77.182419 L 121.225426 80.852646 L 116.637611 83.605347 L 114.802483 83.605347 Z"/>
            <path id="path3" fill="#25282b" stroke="none" d="M 113.884926 84.522919 L 112.967361 83.605347 L 108.379547 82.68779 L 104.70929 78.099976 L 104.70929 71.677032 L 106.544418 68.00679 L 108.379547 68.00679 L 108.379547 66.171646 L 118.47274 66.171646 L 119.390305 68.00679 L 120.307854 68.00679 L 122.142982 69.841904 L 123.060555 76.264847 L 122.142982 77.182419 L 121.225426 80.852646 L 116.637611 83.605347 L 114.802483 83.605347 Z"/>
            <path id="path4" fill="#ffffff" stroke="none" d="M 148.752304 89.110718 L 145.999619 89.110718 L 140.494247 87.275604 L 136.82399 84.522919 L 132.236176 77.182419 L 129.48349 68.00679 L 129.48349 60.666275 L 132.236176 50.57309 L 133.153748 49.655518 L 133.153748 47.820404 L 136.82399 43.23259 L 141.411804 39.562332 L 144.16449 39.562332 L 148.752304 37.727219 L 153.340118 39.562332 L 156.092804 39.562332 L 161.59819 45.067719 L 165.268433 50.57309 L 167.103546 57.913589 L 167.103546 70.759476 L 165.268433 77.182419 L 163.433319 79.017532 L 160.680634 84.522919 L 151.505005 89.110718 Z"/>
            <path id="path5" fill="#231f20" stroke="none" d="M 158.84549 84.522919 L 152.422577 81.770218 L 149.669861 77.182419 L 149.669861 72.594589 L 150.587433 71.677032 L 150.587433 69.841904 L 152.422577 68.00679 L 153.340118 68.00679 L 154.25769 66.171646 L 163.433319 66.171646 L 164.350876 68.00679 L 165.268433 68.00679 L 167.103546 69.841904 L 168.021118 76.264847 L 167.103546 77.182419 L 166.186005 80.852646 L 161.59819 83.605347 L 159.763062 83.605347 Z"/>
            <path id="path6" fill="#25282b" stroke="none" d="M 158.84549 84.522919 L 152.422577 81.770218 L 149.669861 77.182419 L 149.669861 72.594589 L 150.587433 71.677032 L 150.587433 69.841904 L 152.422577 68.00679 L 153.340118 68.00679 L 154.25769 66.171646 L 163.433319 66.171646 L 164.350876 68.00679 L 165.268433 68.00679 L 167.103546 69.841904 L 168.021118 76.264847 L 167.103546 77.182419 L 166.186005 80.852646 L 161.59819 83.605347 L 159.763062 83.605347 Z"/>
            <path id="path7" fill="#ffffff" stroke="none" d="M 117.555168 95.533661 L 119.390305 87.275604 L 124.895676 82.68779 L 127.648361 82.68779 L 131.318604 84.522919 L 133.153748 86.358032 L 134.988876 90.02829 L 135.906418 95.533661 L 134.988876 101.039032 L 133.153748 102.874176 L 126.730797 114.802475 L 119.390305 101.039032 Z"/>
        </g>
    </g>
</svg>
