<?xml version="1.0" encoding="UTF-8"?>
<!-- Generated by Pixelmator Pro 3.6.12 -->
<svg width="817" height="302" viewBox="0 0 817 302" xmlns="http://www.w3.org/2000/svg">
    <linearGradient id="linearGradient1" x1="41.478877" y1="280.303851" x2="670.973608" y2="280.303851" gradientUnits="userSpaceOnUse">
        <stop offset="0" stop-color="#0079c1" stop-opacity="1"/>
        <stop offset="0.071429" stop-color="#0075b4" stop-opacity="1"/>
        <stop offset="0.142857" stop-color="#3e71a9" stop-opacity="1"/>
        <stop offset="0.214286" stop-color="#5e6e9f" stop-opacity="1"/>
        <stop offset="0.285714" stop-color="#746996" stop-opacity="1"/>
        <stop offset="0.357143" stop-color="#87658c" stop-opacity="1"/>
        <stop offset="0.428571" stop-color="#975f84" stop-opacity="1"/>
        <stop offset="0.5" stop-color="#a65a7b" stop-opacity="1"/>
        <stop offset="0.571429" stop-color="#b45373" stop-opacity="1"/>
        <stop offset="0.642857" stop-color="#c04b6c" stop-opacity="1"/>
        <stop offset="0.714286" stop-color="#cc4365" stop-opacity="1"/>
        <stop offset="0.785714" stop-color="#d63a5f" stop-opacity="1"/>
        <stop offset="0.857143" stop-color="#df305a" stop-opacity="1"/>
        <stop offset="0.928571" stop-color="#e72556" stop-opacity="1"/>
        <stop offset="1" stop-color="#ed1c53" stop-opacity="1"/>
    </linearGradient>
    <path id="Path-copy-6" fill="url(#linearGradient1)" stroke="none" d="M 49.154297 258.533447 L 41.479248 302.070801 L 663.300049 302.070801 L 670.970947 258.533447 Z"/>
    <path id="Path-copy-5" fill="#ffffff" stroke="none" d="M 129.491211 75.169678 L 100.824463 235.00708 C 94.087158 273.244629 85.178711 302.06958 28.112061 302.06958 C 19.583008 302.06958 11.112061 301.773682 0.341309 301.186279 L 8.011963 257.656982 C 32.124512 257.656982 35.91626 256.177979 39.653809 235.00708 L 68.316162 75.169678 Z"/>
    <path id="Path-copy-4" fill="#ffffff" stroke="none" d="M 299.080322 229.287598 L 242.30957 229.287598 L 246.30127 206.637451 C 227.276367 227.820801 211.23877 233.699951 185.947021 233.699951 C 152.409668 233.699951 134.276123 213.116699 142.05957 168.987549 L 158.605469 75.170898 L 219.776367 75.170898 L 205.101318 158.404053 C 201.36377 179.587402 207.530518 186.350098 222.230469 186.350098 C 239.880371 186.350098 247.80127 173.116699 252.001221 149.283447 L 265.072021 75.170898 L 326.255371 75.170898 Z"/>
    <path id="Path-copy-3" fill="#ffffff" stroke="none" d="M 353.881592 75.169678 L 410.060791 75.169678 L 406.014893 98.107178 C 415.731689 86.344482 437.598389 70.75708 459.660889 70.75708 C 487.310791 70.75708 500.531738 82.523682 504.977539 98.990479 C 521.481689 80.457031 540.540039 70.75708 563.194092 70.75708 C 608.194092 70.75708 617.86084 96.048828 610.435791 138.107178 L 594.36084 229.286133 L 533.181641 229.286133 L 547.027588 150.76123 C 551.027588 128.111328 548.215088 118.990479 532.035889 118.990479 C 514.102539 118.990479 507.819092 134.582031 504.54834 153.115479 L 491.123291 229.286133 L 429.939941 229.286133 L 443.794189 150.76123 C 447.781738 128.111328 444.977539 118.990479 428.80249 118.990479 C 410.86084 118.990479 404.581787 134.582031 401.319092 153.115479 L 387.885742 229.286133 L 326.706787 229.286133 Z"/>
    <path id="Path-copy-2" fill="#ffffff" stroke="none" d="M 745.617432 151.93335 C 749.925781 127.520752 741.363281 116.045898 725.184082 116.045898 C 710.484131 116.045898 697.988281 130.170898 694.35498 150.758301 C 690.575928 172.229248 697.10083 186.93335 712.988281 186.93335 C 729.155029 186.93335 741.888428 173.116699 745.617432 151.93335 M 702.684082 75.170898 L 698.642578 98.104248 L 699.22583 98.104248 C 711.080078 79.283447 734.646729 70.758301 752.28833 70.758301 C 798.763428 70.758301 814.421631 108.699951 806.959229 151.054199 C 796.275879 211.637451 754.738281 233.699951 720.325928 233.699951 C 703.563232 233.699951 692.400879 226.93335 684.379883 213.991699 L 668.371582 302.070801 L 607.196777 302.070801 L 647.679932 75.170898 Z"/>
    <linearGradient id="linearGradient2" x1="75.873077" y1="21.441037" x2="816.658104" y2="21.441037" gradientUnits="userSpaceOnUse">
        <stop offset="0" stop-color="#ed1c53" stop-opacity="1"/>
        <stop offset="0.071429" stop-color="#e72556" stop-opacity="1"/>
        <stop offset="0.142857" stop-color="#df305a" stop-opacity="1"/>
        <stop offset="0.214286" stop-color="#d63a5f" stop-opacity="1"/>
        <stop offset="0.285714" stop-color="#cc4365" stop-opacity="1"/>
        <stop offset="0.357143" stop-color="#c04b6c" stop-opacity="1"/>
        <stop offset="0.428571" stop-color="#b45373" stop-opacity="1"/>
        <stop offset="0.5" stop-color="#a65a7b" stop-opacity="1"/>
        <stop offset="0.571429" stop-color="#975f84" stop-opacity="1"/>
        <stop offset="0.642857" stop-color="#87658c" stop-opacity="1"/>
        <stop offset="0.714286" stop-color="#746996" stop-opacity="1"/>
        <stop offset="0.785714" stop-color="#5e6e9f" stop-opacity="1"/>
        <stop offset="0.857143" stop-color="#3e71a9" stop-opacity="1"/>
        <stop offset="0.928571" stop-color="#0075b4" stop-opacity="1"/>
        <stop offset="1" stop-color="#0079c1" stop-opacity="1"/>
    </linearGradient>
    <path id="Path-copy" fill="url(#linearGradient2)" stroke="none" d="M 83.545898 -0.324951 L 75.875 43.208252 L 808.983398 43.208252 L 816.658203 -0.324951 Z"/>
</svg>
