<?xml version="1.0" encoding="UTF-8"?>
<!-- Generated by Pixelmator Pro 3.6.12 -->
<svg width="208" height="256" viewBox="0 0 208 256" xmlns="http://www.w3.org/2000/svg">
    <g id="Group-copy">
        <path id="Path" fill="#231f20" stroke="none" d="M 123.748291 59.847382 L 84.418701 59.847382 L 84.418701 33.781906 L 75.545631 33.781906 C 68.728539 33.781906 63.19455 28.236023 63.19455 21.419281 L 63.19455 12.187714 C 63.19455 5.382523 68.728539 -0.151825 75.545631 -0.151825 L 132.621368 -0.151825 C 139.438446 -0.151825 144.972443 5.382523 144.972443 12.187714 L 144.972443 21.419281 C 144.972443 28.236023 139.438446 33.781906 132.621368 33.781906 L 123.748291 33.781906 Z M 94.621063 49.64537 L 113.546288 49.64537 L 113.546288 23.579819 L 132.621368 23.579819 C 133.811722 23.579819 134.770432 22.609299 134.770432 21.419281 L 134.770432 12.187714 C 134.770432 11.009247 133.811722 10.050278 132.621368 10.050278 L 75.545631 10.050278 C 74.355263 10.050278 73.396561 11.009247 73.396561 12.187714 L 73.396561 21.419281 C 73.396561 22.609299 74.355263 23.579819 75.545631 23.579819 L 94.621063 23.579819 Z"/>
        <path id="path1" fill="#ffffff" stroke="none" d="M 202.967041 151.862366 C 202.967041 206.477417 158.692642 250.740219 104.089317 250.740219 C 49.474346 250.740219 5.199951 206.477417 5.199951 151.862366 C 5.199951 97.247208 49.474346 52.98436 104.089317 52.98436 C 158.692642 52.98436 202.967041 97.247208 202.967041 151.862366"/>
        <path id="path2" fill="#231f20" stroke="none" d="M 104.084732 255.84819 C 46.742786 255.84819 0.100006 209.205276 0.100006 151.863495 C 0.100006 94.521652 46.742786 47.878784 104.084732 47.878784 C 161.426315 47.878784 208.069458 94.521652 208.069458 151.863495 C 208.069458 209.205276 161.426315 255.84819 104.084732 255.84819 M 104.084732 58.08078 C 52.369507 58.08078 10.302012 100.148376 10.302012 151.863495 C 10.302012 203.578552 52.369507 245.646133 104.084732 245.646133 C 155.799606 245.646133 197.867447 203.578552 197.867447 151.863495 C 197.867447 100.148376 155.799606 58.08078 104.084732 58.08078"/>
        <path id="path3" fill="#231f20" stroke="none" d="M 187.098114 150.888306 C 187.098114 196.734039 149.92923 233.902802 104.083672 233.902802 C 58.237759 233.902802 21.068876 196.734039 21.068876 150.888306 C 21.068876 105.042572 58.237759 67.873871 104.083672 67.873871 C 149.92923 67.873871 187.098114 105.042572 187.098114 150.888306"/>
        <path id="path4" fill="#231f20" stroke="none" d="M 16.087051 100.942154 L 4.683399 91.618195 C -0.631278 87.250854 -1.428497 79.382675 2.892565 74.067917 L 9.743853 65.691299 C 11.835098 63.126343 14.827579 61.531906 18.178297 61.196854 L 19.426132 61.150665 C 22.268408 61.150665 24.97176 62.098083 27.236483 63.888916 L 39.795589 74.148758 L 33.337093 82.051575 L 19.426132 71.352753 L 17.646935 72.138428 L 10.795294 80.526505 C 10.021346 81.485474 10.171552 82.929703 11.153531 83.73848 L 22.545547 93.039337 Z"/>
        <path id="path5" fill="#231f20" stroke="none" d="M 192.080994 100.942154 L 185.622498 93.039337 L 197.037796 83.726929 C 197.996857 82.929703 198.147064 81.485474 197.361115 80.514954 L 190.521469 72.149979 L 188.741913 71.352753 L 174.831314 82.051575 L 168.372818 74.148758 L 180.862457 63.935104 C 183.554535 61.809219 186.789597 60.838699 190.059219 61.208405 C 193.340469 61.531906 196.332947 63.126343 198.424194 65.691299 L 205.264206 74.067917 C 209.596893 79.382675 208.799683 87.250854 203.507919 91.606644 Z"/>
        <path id="path6" fill="#ffffff" stroke="none" d="M 67.822723 193.336029 L 67.822723 133.452362 L 47.129936 133.452362 L 47.129936 121.459518 L 49.082611 121.459518 C 56.026279 121.459518 61.3064 120.130768 64.945892 117.473434 C 68.573753 114.827545 70.560982 111.13031 70.884666 106.39328 L 84.96875 106.39328 L 84.96875 193.336029 Z"/>
        <path id="path7" fill="#ffffff" stroke="none" d="M 131.619644 195.66185 C 121.417633 195.66185 113.838585 192.033951 108.905067 184.766541 C 103.959908 177.499146 101.498795 166.234161 101.498795 150.971527 C 101.498795 135.778168 103.959908 124.559372 108.905067 117.292023 C 113.838585 110.024658 121.417633 106.396713 131.619644 106.396713 C 141.821991 106.396713 149.401047 110.024658 154.334564 117.292023 C 159.268082 124.559372 161.740845 135.778168 161.740845 150.971527 C 161.740845 166.234161 159.268082 177.499146 154.334564 184.766541 C 149.401047 192.033951 141.821991 195.66185 131.619644 195.66185 M 144.109634 151.087097 C 144.109634 142.756744 143.681946 136.378998 142.826889 131.930725 C 141.972198 127.482559 140.643265 124.397614 138.840805 122.676147 C 137.049973 120.966156 134.60083 120.111191 131.504333 120.111191 C 128.47731 120.111191 126.085648 120.966156 124.341003 122.676147 C 122.57309 124.397614 121.27906 127.482559 120.412735 131.930725 C 119.557693 136.378998 119.12999 142.722107 119.12999 150.971527 C 119.12999 159.209396 119.557693 165.564056 120.412735 170.012268 C 121.27906 174.460526 122.596359 177.556946 124.398476 179.313126 C 126.189667 181.069321 128.592606 181.947418 131.619644 181.947418 C 134.635391 181.947418 137.049973 181.092407 138.840805 179.370911 C 140.643265 177.660919 141.972198 174.57605 142.826889 170.127838 C 143.681946 165.679565 144.109634 159.336502 144.109634 151.087097"/>
    </g>
</svg>
