<?xml version="1.0" encoding="UTF-8"?>
<!-- Generated by Pixelmator Pro 3.6.8 -->
<svg width="560" height="560" viewBox="0 0 560 560" xmlns="http://www.w3.org/2000/svg">
    <g id="Group-copy">
        <path id="Path" fill="#000000" stroke="none" d="M 276.79953 0 C 277.522644 0 278.285919 0.030029 279.029083 0.030029 C 279.772278 0.030029 280.525482 0 281.258606 0 L 276.79953 0 Z"/>
        <path id="path1" fill="#000000" stroke="none" d="M 485.31131 82.65329 C 479.144867 51.811554 459.410492 39.468689 429.793884 27.135681 C 400.609009 14.973694 330.669952 0.441956 279.029083 0.030029 C 227.388245 0.441956 157.459183 14.973694 128.264343 27.135681 C 98.657715 39.478516 78.913284 51.811554 72.736855 82.65329 L 50.531906 253.644531 L 50.531906 489.25235 L 88.775444 489.25235 L 88.775444 526.210327 C 88.775444 571.263245 154.707428 571.263245 154.707428 526.210327 L 154.707428 489.25235 L 276.417938 489.25235 L 276.79953 489.25235 L 403.350769 489.25235 L 403.350769 526.210327 C 403.350769 571.263245 469.282745 571.263245 469.282745 526.210327 L 469.282745 489.25235 L 507.526276 489.25235 L 507.526276 253.644531 L 485.31131 82.65329 Z M 185.006989 43.174744 L 276.79953 43.174744 L 373.041168 43.174744 C 391.550262 43.174744 391.550262 70.943054 373.041168 70.943054 L 276.588623 70.943054 L 185.017029 70.943054 C 166.517929 70.933228 166.517929 43.174744 185.006989 43.174744 Z M 121.776604 415.396454 C 104.311897 415.396454 90.151337 401.235535 90.151337 383.781158 C 90.151337 366.316345 104.311897 352.156036 121.776604 352.156036 C 139.231247 352.156036 153.3918 366.316345 153.3918 383.781158 C 153.3918 401.235535 139.231247 415.396454 121.776604 415.396454 Z M 276.79953 271.671448 L 109.062202 271.671448 C 92.631966 271.671448 89.197281 259.871124 90.804153 247.990479 L 108.108147 123.970093 C 110.468208 108.895874 115.580101 98.963257 135.123672 98.963257 L 276.588623 98.963257 L 422.934479 98.963257 C 442.478058 98.963257 447.589935 108.895874 449.960083 123.970093 L 467.254028 247.990479 C 468.860931 259.881531 465.416199 271.671448 448.995941 271.671448 L 276.79953 271.671448 Z M 436.291626 415.396454 C 418.826935 415.396454 404.666351 401.235535 404.666351 383.781158 C 404.666351 366.316345 418.826935 352.156036 436.291626 352.156036 C 453.746246 352.156036 467.90686 366.316345 467.90686 383.781158 C 467.90686 401.235535 453.746246 415.396454 436.291626 415.396454 Z"/>
    </g>
</svg>
