<?xml version="1.0" encoding="UTF-8"?>
<!-- Generated by Pixelmator Pro 3.6.12 -->
<svg width="68" height="71" viewBox="0 0 68 71" xmlns="http://www.w3.org/2000/svg">
    <path id="Path" fill="#ffffff" stroke="none" d="M 10.322 10.213001 C -2.868 23.966 -2.868 46.260002 10.322 60.011002 C 17.492001 67.485001 27.083 70.896004 36.460999 70.246002 L 18.764 51.682999 C 9.88 42.423996 9.88 27.799 18.535 18.777 C 27.188999 9.756001 41.219002 9.756001 49.870998 18.777 C 58.417 27.684002 58.523998 42.050003 49.957001 51.352997 L 44.979 56.583 L 52.636002 64.625 C 54.563999 63.313004 56.395 61.774002 58.087002 60.007 C 71.278999 46.259003 71.278999 23.965 58.087002 10.211998 C 51.492001 3.337997 42.847 -0.098999 34.203999 -0.098999 C 25.561001 -0.098999 16.916 3.337997 10.322 10.213001"/>
    <path id="path1" fill="#ffffff" stroke="none" d="M 28.395 29.220001 L 39.813 29.220001 L 39.813 41.148003 L 28.395 41.148003 Z"/>
    <path id="path2" fill="#ffffff" stroke="none" d="M 28.688 29.513 L 39.52 29.513 L 39.52 40.854996 L 28.688 40.854996 L 28.688 29.513 Z M 39.813 29.222 L 39.813 29.222 M 28.103001 28.927002 L 28.103001 41.441002 L 40.105999 41.441002 L 40.105999 28.927002 L 28.103001 28.927002"/>
    <path id="path3" fill="#231f20" stroke="none" d="M 186.223999 26.390999 C 189.350998 26.390999 192.110001 28.024002 193.757004 30.555 L 178.677002 30.555 C 180.322998 28.040001 183.085007 26.390999 186.223999 26.390999 M 172.376999 35.912003 C 172.376999 43.923996 178.608994 50.422997 186.296997 50.422997 C 192.341995 50.422997 197.485992 46.403999 199.419998 40.788002 L 194.177002 40.788002 C 192.569 43.583 189.643997 45.456001 186.296997 45.456001 C 181.240005 45.456001 177.141998 41.182999 177.141998 35.912003 L 200.210999 35.514 C 200.009003 27.684002 193.858002 21.399002 186.298004 21.399002 C 178.608994 21.399002 172.376999 27.897999 172.376999 35.912003"/>
    <path id="path4" fill="#231f20" stroke="none" d="M 117.822998 35.910999 C 117.822998 30.640999 121.925003 26.368 126.977997 26.368 C 132.033005 26.368 136.134003 30.640999 136.134003 35.910999 C 136.134003 41.18 132.031998 45.453003 126.977997 45.453003 C 121.925003 45.454002 117.822998 41.18 117.822998 35.910999 M 113.016998 35.917999 C 113.016998 43.936996 119.252998 50.434998 126.945999 50.434998 C 130.317001 50.434998 133.412003 49.171997 135.824005 47.085999 L 135.824005 50.434998 L 141.005005 50.434998 L 141.005005 35.842003 C 140.820007 27.858002 134.612 21.395 126.945999 21.395 C 119.252998 21.396 113.016998 27.896999 113.016998 35.917999"/>
    <path id="path5" fill="#231f20" stroke="none" d="M 88.314003 35.91 C 88.314003 30.640999 92.412003 26.368 97.468002 26.368 C 102.526001 26.368 106.623001 30.640999 106.623001 35.91 C 106.623001 41.18 102.525002 45.453003 97.468002 45.453003 C 92.412003 45.454002 88.314003 41.18 88.314003 35.91 M 83.411003 35.842003 L 83.411003 56.951 L 88.595001 56.951 L 88.595001 47.084999 C 91.004997 49.170998 94.099998 50.433998 97.471001 50.433998 C 105.162003 50.433998 111.401001 43.935997 111.401001 35.917 C 111.401001 27.896 105.163002 21.395 97.471001 21.395 C 89.804001 21.396 83.596001 27.858002 83.411003 35.842003"/>
    <path id="path6" fill="#231f20" stroke="none" d="M 143.063004 35.916 C 143.063004 43.934998 149.298996 50.436996 156.992004 50.436996 C 163.042999 50.436996 168.192993 46.413002 170.115997 40.792999 L 164.845001 40.792999 C 163.25 43.579002 160.330002 45.443001 156.992996 45.443001 C 151.944 45.443001 147.854004 41.178001 147.854004 35.916 C 147.854004 30.654999 151.944 26.389 156.992996 26.389 C 160.223999 26.389 163.063995 28.139999 164.832001 30.777 L 170.164993 30.777 C 168.033997 25.293999 162.949005 21.396 156.990997 21.396 C 149.300003 21.396 143.063004 27.896999 143.063004 35.916"/>
</svg>
